# xmcd CD database file
#
# Track frame offsets:
#	160
#	18362
#	32980
#	55060
#	72702
#	87530
#	106077
#	121105
#	135790
#	154325
#	171207
#
# Disc length: 2614 seconds
#
# Revision: 0
# Processed by: cddbd v1.5.1PL0 Copyright (c) Steve Scherf et al.
# Submitted via: CDex 1.51
#
DISCID=8d0a340b
DTITLE=Tom Stipe - Never Too Late
DYEAR=1991
DGENRE=Country
TTITLE0=It's Never Too Late
TTITLE1=Down The Road
TTITLE2=Twelve Days Out
TTITLE3=You Should Have Stood By Her
TTITLE4=Would It Turn Out This Way
TTITLE5=Another Day
TTITLE6=Sweet Forgiveness
TTITLE7=Hide Away
TTITLE8=A Time To Weep
TTITLE9=Living Sacrifice
TTITLE10=Voice Of The Father
EXTD=YEAR: 1991
EXTT0=
EXTT1=
EXTT2=
EXTT3=
EXTT4=
EXTT5=
EXTT6=
EXTT7=
EXTT8=
EXTT9=
EXTT10=
PLAYORDER=
